<svg xmlns="http://www.w3.org/2000/svg" viewBox="0 0 55 110" preserveAspectRatio="slice slice" >
<rect width="55" height="110"/>
<rect x="4" y="25" fill="#FFFFFF" width="47" height="60"/>
<path fill="#FFFFFF" d="M19.247,17.5H8.253c-1.106,0-2.003-0.897-2.003-2.003V9.503C6.25,8.397,7.147,7.5,8.253,7.5h10.994
	c1.106,0,2.003,0.897,2.003,2.003v5.994C21.25,16.603,20.353,17.5,19.247,17.5z"/>
<path fill="#FFFFFF" d="M46.747,17.5H35.753c-1.106,0-2.003-0.897-2.003-2.003V9.503c0-1.106,0.897-2.003,2.003-2.003h10.994
	c1.106,0,2.003,0.897,2.003,2.003v5.994C48.75,16.603,47.853,17.5,46.747,17.5z"/>
<path fill="#FFFFFF" d="M19.247,102.5H8.253c-1.106,0-2.003-0.897-2.003-2.003v-5.994c0-1.106,0.897-2.003,2.003-2.003h10.994
	c1.106,0,2.003,0.897,2.003,2.003v5.994C21.25,101.603,20.353,102.5,19.247,102.5z"/>
<path fill="#FFFFFF" d="M46.747,102.5H35.753c-1.106,0-2.003-0.897-2.003-2.003v-5.994c0-1.106,0.897-2.003,2.003-2.003h10.994
	c1.106,0,2.003,0.897,2.003,2.003v5.994C48.75,101.603,47.853,102.5,46.747,102.5z"/>
</svg>