<svg xmlns="http://www.w3.org/2000/svg" viewBox="0 0 882 200" preserveAspectRatio="slice slice" width="882" height="200">
<g id="Left_Wing">
	<path id="Back" d="M300,110H0V0h279.975C291.035,0,300,9.11,300,20.347V110z"/>
	<g id="Cutouts">
		<rect x="8" y="25" fill="#FFFFFF" width="47" height="60"/>
		<rect x="63" y="25" fill="#FFFFFF" width="47" height="60"/>
		<rect x="118" y="25" fill="#FFFFFF" width="47" height="60"/>
		<rect x="173" y="25" fill="#FFFFFF" width="47" height="60"/>
		<rect x="228" y="25" fill="#FFFFFF" width="47" height="60"/>
	</g>
	<g id="Top_Notches">
		<path fill="#FFFFFF" d="M23.247,17.5H12.253c-1.106,0-2.003-0.897-2.003-2.003V9.503c0-1.106,0.897-2.003,2.003-2.003h10.994
			c1.106,0,2.003,0.897,2.003,2.003v5.994C25.25,16.603,24.353,17.5,23.247,17.5z"/>
		<path fill="#FFFFFF" d="M50.747,17.5H39.753c-1.106,0-2.003-0.897-2.003-2.003V9.503c0-1.106,0.897-2.003,2.003-2.003h10.994
			c1.106,0,2.003,0.897,2.003,2.003v5.994C52.75,16.603,51.853,17.5,50.747,17.5z"/>
		<path fill="#FFFFFF" d="M78.247,17.5H67.253c-1.106,0-2.003-0.897-2.003-2.003V9.503c0-1.106,0.897-2.003,2.003-2.003h10.994
			c1.106,0,2.003,0.897,2.003,2.003v5.994C80.25,16.603,79.353,17.5,78.247,17.5z"/>
		<path fill="#FFFFFF" d="M105.747,17.5H94.753c-1.106,0-2.003-0.897-2.003-2.003V9.503c0-1.106,0.897-2.003,2.003-2.003h10.994
			c1.106,0,2.003,0.897,2.003,2.003v5.994C107.75,16.603,106.853,17.5,105.747,17.5z"/>
		<path fill="#FFFFFF" d="M133.247,17.5h-10.994c-1.106,0-2.003-0.897-2.003-2.003V9.503c0-1.106,0.897-2.003,2.003-2.003h10.994
			c1.106,0,2.003,0.897,2.003,2.003v5.994C135.25,16.603,134.353,17.5,133.247,17.5z"/>
		<path fill="#FFFFFF" d="M160.747,17.5h-10.994c-1.106,0-2.003-0.897-2.003-2.003V9.503c0-1.106,0.897-2.003,2.003-2.003h10.994
			c1.106,0,2.003,0.897,2.003,2.003v5.994C162.75,16.603,161.853,17.5,160.747,17.5z"/>
		<path fill="#FFFFFF" d="M188.247,17.5h-10.994c-1.106,0-2.003-0.897-2.003-2.003V9.503c0-1.106,0.897-2.003,2.003-2.003h10.994
			c1.106,0,2.003,0.897,2.003,2.003v5.994C190.25,16.603,189.353,17.5,188.247,17.5z"/>
		<path fill="#FFFFFF" d="M215.747,17.5h-10.994c-1.106,0-2.003-0.897-2.003-2.003V9.503c0-1.106,0.897-2.003,2.003-2.003h10.994
			c1.106,0,2.003,0.897,2.003,2.003v5.994C217.75,16.603,216.853,17.5,215.747,17.5z"/>
		<path fill="#FFFFFF" d="M243.247,17.5h-10.994c-1.106,0-2.003-0.897-2.003-2.003V9.503c0-1.106,0.897-2.003,2.003-2.003h10.994
			c1.106,0,2.003,0.897,2.003,2.003v5.994C245.25,16.603,244.353,17.5,243.247,17.5z"/>
		<path fill="#FFFFFF" d="M270.747,17.5h-10.994c-1.106,0-2.003-0.897-2.003-2.003V9.503c0-1.106,0.897-2.003,2.003-2.003h10.994
			c1.106,0,2.003,0.897,2.003,2.003v5.994C272.75,16.603,271.853,17.5,270.747,17.5z"/>
	</g>
	<g id="Bottom_Notches">
		<path fill="#FFFFFF" d="M23.247,102.5H12.253c-1.106,0-2.003-0.897-2.003-2.003v-5.994c0-1.106,0.897-2.003,2.003-2.003h10.994
			c1.106,0,2.003,0.897,2.003,2.003v5.994C25.25,101.603,24.353,102.5,23.247,102.5z"/>
		<path fill="#FFFFFF" d="M50.747,102.5H39.753c-1.106,0-2.003-0.897-2.003-2.003v-5.994c0-1.106,0.897-2.003,2.003-2.003h10.994
			c1.106,0,2.003,0.897,2.003,2.003v5.994C52.75,101.603,51.853,102.5,50.747,102.5z"/>
		<path fill="#FFFFFF" d="M78.247,102.5H67.253c-1.106,0-2.003-0.897-2.003-2.003v-5.994c0-1.106,0.897-2.003,2.003-2.003h10.994
			c1.106,0,2.003,0.897,2.003,2.003v5.994C80.25,101.603,79.353,102.5,78.247,102.5z"/>
		<path fill="#FFFFFF" d="M105.747,102.5H94.753c-1.106,0-2.003-0.897-2.003-2.003v-5.994c0-1.106,0.897-2.003,2.003-2.003h10.994
			c1.106,0,2.003,0.897,2.003,2.003v5.994C107.75,101.603,106.853,102.5,105.747,102.5z"/>
		<path fill="#FFFFFF" d="M133.247,102.5h-10.994c-1.106,0-2.003-0.897-2.003-2.003v-5.994c0-1.106,0.897-2.003,2.003-2.003h10.994
			c1.106,0,2.003,0.897,2.003,2.003v5.994C135.25,101.603,134.353,102.5,133.247,102.5z"/>
		<path fill="#FFFFFF" d="M160.747,102.5h-10.994c-1.106,0-2.003-0.897-2.003-2.003v-5.994c0-1.106,0.897-2.003,2.003-2.003h10.994
			c1.106,0,2.003,0.897,2.003,2.003v5.994C162.75,101.603,161.853,102.5,160.747,102.5z"/>
		<path fill="#FFFFFF" d="M188.247,102.5h-10.994c-1.106,0-2.003-0.897-2.003-2.003v-5.994c0-1.106,0.897-2.003,2.003-2.003h10.994
			c1.106,0,2.003,0.897,2.003,2.003v5.994C190.25,101.603,189.353,102.5,188.247,102.5z"/>
		<path fill="#FFFFFF" d="M215.747,102.5h-10.994c-1.106,0-2.003-0.897-2.003-2.003v-5.994c0-1.106,0.897-2.003,2.003-2.003h10.994
			c1.106,0,2.003,0.897,2.003,2.003v5.994C217.75,101.603,216.853,102.5,215.747,102.5z"/>
		<path fill="#FFFFFF" d="M243.247,102.5h-10.994c-1.106,0-2.003-0.897-2.003-2.003v-5.994c0-1.106,0.897-2.003,2.003-2.003h10.994
			c1.106,0,2.003,0.897,2.003,2.003v5.994C245.25,101.603,244.353,102.5,243.247,102.5z"/>
		<path fill="#FFFFFF" d="M270.747,102.5h-10.994c-1.106,0-2.003-0.897-2.003-2.003v-5.994c0-1.106,0.897-2.003,2.003-2.003h10.994
			c1.106,0,2.003,0.897,2.003,2.003v5.994C272.75,101.603,271.853,102.5,270.747,102.5z"/>
	</g>
</g>
<g id="Left_Curl">
	<path d="M300,23.139v86.14l-104,54.476V89.716c0-6.656,4.824-14.628,10.72-17.717L300,23.139z"/>
	<polygon fill="#FFFFFF" points="289.5,56.636 289.5,93.447 230.117,93.447 230.117,89.32 	"/>
	<g id="Top_Notches_2_">
		<path display="none" fill="#FFFFFF" d="M204.997,94.675l-3.494,5.639c-1.106,0.604-2.003,0.198-2.003-0.908l1.5-2.739
			c0-0.332,0.681-2.567,0.333-3.22c-1.833-3.447-0.211-4.9,2.995-8.103l0.669-0.668c1.106-0.604,2.003-0.198,2.003,0.908v5.994
			C207,92.684,206.103,94.071,204.997,94.675z"/>
		<path fill="#FFFFFF" d="M232.497,79.648l-10.994,6.008c-1.106,0.604-2.003,0.198-2.003-0.908v-5.994
			c0-1.106,0.897-2.493,2.003-3.097l10.994-6.008c1.106-0.604,2.003-0.198,2.003,0.908v5.994
			C234.5,77.657,233.603,79.044,232.497,79.648z"/>
		<path fill="#FFFFFF" d="M259.997,64.621l-10.994,6.008C247.897,71.233,247,70.827,247,69.72v-5.994
			c0-1.106,0.897-2.493,2.003-3.097l10.994-6.008c1.106-0.604,2.003-0.198,2.003,0.908v5.994
			C262,62.63,261.103,64.017,259.997,64.621z"/>
		<path fill="#FFFFFF" d="M287.497,49.594l-10.994,6.008c-1.106,0.604-2.003,0.198-2.003-0.908v-5.994
			c0-1.106,0.897-2.493,2.003-3.097l10.994-6.008c1.106-0.604,2.003-0.198,2.003,0.908v5.994
			C289.5,47.603,288.603,48.99,287.497,49.594z"/>
	</g>
</g>
<g id="Right_Wing">
	<path id="Back_1_" d="M582,110h300V0L602.025,0C590.965,0,582,9.11,582,20.347V110z"/>
	<g id="Cutouts_2_">
		<rect x="827" y="25" fill="#FFFFFF" width="47" height="60"/>
		<rect x="772" y="25" fill="#FFFFFF" width="47" height="60"/>
		<rect x="717" y="25" fill="#FFFFFF" width="47" height="60"/>
		<rect x="662" y="25" fill="#FFFFFF" width="47" height="60"/>
		<rect x="607" y="25" fill="#FFFFFF" width="47" height="60"/>
	</g>
	<g id="Top_Notches_4_">
		<path fill="#FFFFFF" d="M858.753,17.5h10.994c1.106,0,2.003-0.897,2.003-2.003V9.503c0-1.106-0.897-2.003-2.003-2.003h-10.994
			c-1.106,0-2.003,0.897-2.003,2.003v5.994C856.75,16.603,857.647,17.5,858.753,17.5z"/>
		<path fill="#FFFFFF" d="M831.253,17.5h10.994c1.106,0,2.003-0.897,2.003-2.003V9.503c0-1.106-0.897-2.003-2.003-2.003h-10.994
			c-1.106,0-2.003,0.897-2.003,2.003v5.994C829.25,16.603,830.147,17.5,831.253,17.5z"/>
		<path fill="#FFFFFF" d="M803.753,17.5h10.994c1.106,0,2.003-0.897,2.003-2.003V9.503c0-1.106-0.897-2.003-2.003-2.003h-10.994
			c-1.106,0-2.003,0.897-2.003,2.003v5.994C801.75,16.603,802.647,17.5,803.753,17.5z"/>
		<path fill="#FFFFFF" d="M776.253,17.5h10.994c1.106,0,2.003-0.897,2.003-2.003V9.503c0-1.106-0.897-2.003-2.003-2.003h-10.994
			c-1.106,0-2.003,0.897-2.003,2.003v5.994C774.25,16.603,775.147,17.5,776.253,17.5z"/>
		<path fill="#FFFFFF" d="M748.753,17.5h10.994c1.106,0,2.003-0.897,2.003-2.003V9.503c0-1.106-0.897-2.003-2.003-2.003h-10.994
			c-1.106,0-2.003,0.897-2.003,2.003v5.994C746.75,16.603,747.647,17.5,748.753,17.5z"/>
		<path fill="#FFFFFF" d="M721.253,17.5h10.994c1.106,0,2.003-0.897,2.003-2.003V9.503c0-1.106-0.897-2.003-2.003-2.003h-10.994
			c-1.106,0-2.003,0.897-2.003,2.003v5.994C719.25,16.603,720.147,17.5,721.253,17.5z"/>
		<path fill="#FFFFFF" d="M693.753,17.5h10.994c1.106,0,2.003-0.897,2.003-2.003V9.503c0-1.106-0.897-2.003-2.003-2.003h-10.994
			c-1.106,0-2.003,0.897-2.003,2.003v5.994C691.75,16.603,692.647,17.5,693.753,17.5z"/>
		<path fill="#FFFFFF" d="M666.253,17.5h10.994c1.106,0,2.003-0.897,2.003-2.003V9.503c0-1.106-0.897-2.003-2.003-2.003h-10.994
			c-1.106,0-2.003,0.897-2.003,2.003v5.994C664.25,16.603,665.147,17.5,666.253,17.5z"/>
		<path fill="#FFFFFF" d="M638.753,17.5h10.994c1.106,0,2.003-0.897,2.003-2.003V9.503c0-1.106-0.897-2.003-2.003-2.003h-10.994
			c-1.106,0-2.003,0.897-2.003,2.003v5.994C636.75,16.603,637.647,17.5,638.753,17.5z"/>
		<path fill="#FFFFFF" d="M611.253,17.5h10.994c1.106,0,2.003-0.897,2.003-2.003V9.503c0-1.106-0.897-2.003-2.003-2.003h-10.994
			c-1.106,0-2.003,0.897-2.003,2.003v5.994C609.25,16.603,610.147,17.5,611.253,17.5z"/>
	</g>
	<g id="Bottom_Notches_2_">
		<path fill="#FFFFFF" d="M858.753,102.5h10.994c1.106,0,2.003-0.897,2.003-2.003v-5.994c0-1.106-0.897-2.003-2.003-2.003h-10.994
			c-1.106,0-2.003,0.897-2.003,2.003v5.994C856.75,101.603,857.647,102.5,858.753,102.5z"/>
		<path fill="#FFFFFF" d="M831.253,102.5h10.994c1.106,0,2.003-0.897,2.003-2.003v-5.994c0-1.106-0.897-2.003-2.003-2.003h-10.994
			c-1.106,0-2.003,0.897-2.003,2.003v5.994C829.25,101.603,830.147,102.5,831.253,102.5z"/>
		<path fill="#FFFFFF" d="M803.753,102.5h10.994c1.106,0,2.003-0.897,2.003-2.003v-5.994c0-1.106-0.897-2.003-2.003-2.003h-10.994
			c-1.106,0-2.003,0.897-2.003,2.003v5.994C801.75,101.603,802.647,102.5,803.753,102.5z"/>
		<path fill="#FFFFFF" d="M776.253,102.5h10.994c1.106,0,2.003-0.897,2.003-2.003v-5.994c0-1.106-0.897-2.003-2.003-2.003h-10.994
			c-1.106,0-2.003,0.897-2.003,2.003v5.994C774.25,101.603,775.147,102.5,776.253,102.5z"/>
		<path fill="#FFFFFF" d="M748.753,102.5h10.994c1.106,0,2.003-0.897,2.003-2.003v-5.994c0-1.106-0.897-2.003-2.003-2.003h-10.994
			c-1.106,0-2.003,0.897-2.003,2.003v5.994C746.75,101.603,747.647,102.5,748.753,102.5z"/>
		<path fill="#FFFFFF" d="M721.253,102.5h10.994c1.106,0,2.003-0.897,2.003-2.003v-5.994c0-1.106-0.897-2.003-2.003-2.003h-10.994
			c-1.106,0-2.003,0.897-2.003,2.003v5.994C719.25,101.603,720.147,102.5,721.253,102.5z"/>
		<path fill="#FFFFFF" d="M693.753,102.5h10.994c1.106,0,2.003-0.897,2.003-2.003v-5.994c0-1.106-0.897-2.003-2.003-2.003h-10.994
			c-1.106,0-2.003,0.897-2.003,2.003v5.994C691.75,101.603,692.647,102.5,693.753,102.5z"/>
		<path fill="#FFFFFF" d="M666.253,102.5h10.994c1.106,0,2.003-0.897,2.003-2.003v-5.994c0-1.106-0.897-2.003-2.003-2.003h-10.994
			c-1.106,0-2.003,0.897-2.003,2.003v5.994C664.25,101.603,665.147,102.5,666.253,102.5z"/>
		<path fill="#FFFFFF" d="M638.753,102.5h10.994c1.106,0,2.003-0.897,2.003-2.003v-5.994c0-1.106-0.897-2.003-2.003-2.003h-10.994
			c-1.106,0-2.003,0.897-2.003,2.003v5.994C636.75,101.603,637.647,102.5,638.753,102.5z"/>
		<path fill="#FFFFFF" d="M611.253,102.5h10.994c1.106,0,2.003-0.897,2.003-2.003v-5.994c0-1.106-0.897-2.003-2.003-2.003h-10.994
			c-1.106,0-2.003,0.897-2.003,2.003v5.994C609.25,101.603,610.147,102.5,611.253,102.5z"/>
	</g>
</g>
<g id="Right_Curl">
	<path d="M582,23.139v86.14l104,54.476V89.716c0-6.656-4.824-14.628-10.72-17.717L582,23.139z"/>
	<polygon fill="#FFFFFF" points="592.5,56.636 592.5,93.447 651.883,93.447 651.883,89.32 	"/>
	<g id="Top_Notches_3_">
		<path display="none" fill="#FFFFFF" d="M677.003,94.675l3.494,5.639c1.106,0.604,2.003,0.198,2.003-0.908l-1.5-2.739
			c0-0.332-0.681-2.567-0.333-3.22c1.833-3.447,0.211-4.9-2.995-8.103l-0.669-0.668c-1.106-0.604-2.003-0.198-2.003,0.908v5.994
			C675,92.684,675.897,94.071,677.003,94.675z"/>
		<path fill="#FFFFFF" d="M649.503,79.648l10.994,6.008c1.106,0.604,2.003,0.198,2.003-0.908v-5.994
			c0-1.106-0.897-2.493-2.003-3.097l-10.994-6.008c-1.106-0.604-2.003-0.198-2.003,0.908v5.994
			C647.5,77.657,648.397,79.044,649.503,79.648z"/>
		<path fill="#FFFFFF" d="M622.003,64.621l10.994,6.008c1.106,0.604,2.003,0.198,2.003-0.908v-5.994
			c0-1.106-0.897-2.493-2.003-3.097l-10.994-6.008C620.897,54.017,620,54.424,620,55.53v5.994
			C620,62.63,620.897,64.017,622.003,64.621z"/>
		<path fill="#FFFFFF" d="M594.503,49.594l10.994,6.008c1.106,0.604,2.003,0.198,2.003-0.908v-5.994
			c0-1.106-0.897-2.493-2.003-3.097l-10.994-6.008c-1.106-0.604-2.003-0.198-2.003,0.908v5.994
			C592.5,47.603,593.397,48.99,594.503,49.594z"/>
	</g>
</g>
<g id="Middle">
	<path d="M441,90H196v99.867c0,5.597,4.461,10.133,9.964,10.133H441h235.036c5.503,0,9.964-4.537,9.964-10.133V90H441z"/>
	<g id="Cutouts_1_">
		<rect x="206" y="115" fill="#FFFFFF" width="110" height="60"/>
		<rect x="326" y="115" fill="#FFFFFF" width="110" height="60"/>
		<rect x="566" y="115" fill="#FFFFFF" width="110" height="60"/>
		<rect x="446" y="115" fill="#FFFFFF" width="110" height="60"/>
	</g>
	<g id="Top_Notches_1_">
		<path fill="#FFFFFF" d="M222.382,107.5h-10.994c-1.106,0-2.003-0.897-2.003-2.003v-5.994c0-1.106,0.897-2.003,2.003-2.003h10.994
			c1.106,0,2.003,0.897,2.003,2.003v5.994C224.385,106.603,223.489,107.5,222.382,107.5z"/>
		<path fill="#FFFFFF" d="M252.382,107.5h-10.994c-1.106,0-2.003-0.897-2.003-2.003v-5.994c0-1.106,0.897-2.003,2.003-2.003h10.994
			c1.106,0,2.003,0.897,2.003,2.003v5.994C254.385,106.603,253.489,107.5,252.382,107.5z"/>
		<path fill="#FFFFFF" d="M282.382,107.5h-10.994c-1.106,0-2.003-0.897-2.003-2.003v-5.994c0-1.106,0.897-2.003,2.003-2.003h10.994
			c1.106,0,2.003,0.897,2.003,2.003v5.994C284.385,106.603,283.489,107.5,282.382,107.5z"/>
		<path fill="#FFFFFF" d="M312.382,107.5h-10.994c-1.106,0-2.003-0.897-2.003-2.003v-5.994c0-1.106,0.897-2.003,2.003-2.003h10.994
			c1.106,0,2.003,0.897,2.003,2.003v5.994C314.385,106.603,313.489,107.5,312.382,107.5z"/>
		<path fill="#FFFFFF" d="M342.382,107.5h-10.994c-1.106,0-2.003-0.897-2.003-2.003v-5.994c0-1.106,0.897-2.003,2.003-2.003h10.994
			c1.106,0,2.003,0.897,2.003,2.003v5.994C344.385,106.603,343.489,107.5,342.382,107.5z"/>
		<path fill="#FFFFFF" d="M372.382,107.5h-10.994c-1.106,0-2.003-0.897-2.003-2.003v-5.994c0-1.106,0.897-2.003,2.003-2.003h10.994
			c1.106,0,2.003,0.897,2.003,2.003v5.994C374.385,106.603,373.489,107.5,372.382,107.5z"/>
		<path fill="#FFFFFF" d="M402.382,107.5h-10.994c-1.106,0-2.003-0.897-2.003-2.003v-5.994c0-1.106,0.897-2.003,2.003-2.003h10.994
			c1.106,0,2.003,0.897,2.003,2.003v5.994C404.385,106.603,403.489,107.5,402.382,107.5z"/>
		<path fill="#FFFFFF" d="M432.382,107.5h-10.994c-1.106,0-2.003-0.897-2.003-2.003v-5.994c0-1.106,0.897-2.003,2.003-2.003h10.994
			c1.106,0,2.003,0.897,2.003,2.003v5.994C434.385,106.603,433.489,107.5,432.382,107.5z"/>
		<path fill="#FFFFFF" d="M659.618,107.5h10.994c1.106,0,2.003-0.897,2.003-2.003v-5.994c0-1.106-0.897-2.003-2.003-2.003h-10.994
			c-1.106,0-2.003,0.897-2.003,2.003v5.994C657.615,106.603,658.511,107.5,659.618,107.5z"/>
		<path fill="#FFFFFF" d="M629.618,107.5h10.994c1.106,0,2.003-0.897,2.003-2.003v-5.994c0-1.106-0.897-2.003-2.003-2.003h-10.994
			c-1.106,0-2.003,0.897-2.003,2.003v5.994C627.615,106.603,628.511,107.5,629.618,107.5z"/>
		<path fill="#FFFFFF" d="M599.618,107.5h10.994c1.106,0,2.003-0.897,2.003-2.003v-5.994c0-1.106-0.897-2.003-2.003-2.003h-10.994
			c-1.106,0-2.003,0.897-2.003,2.003v5.994C597.615,106.603,598.511,107.5,599.618,107.5z"/>
		<path fill="#FFFFFF" d="M569.618,107.5h10.994c1.106,0,2.003-0.897,2.003-2.003v-5.994c0-1.106-0.897-2.003-2.003-2.003h-10.994
			c-1.106,0-2.003,0.897-2.003,2.003v5.994C567.615,106.603,568.511,107.5,569.618,107.5z"/>
		<path fill="#FFFFFF" d="M539.618,107.5h10.994c1.106,0,2.003-0.897,2.003-2.003v-5.994c0-1.106-0.897-2.003-2.003-2.003h-10.994
			c-1.106,0-2.003,0.897-2.003,2.003v5.994C537.615,106.603,538.511,107.5,539.618,107.5z"/>
		<path fill="#FFFFFF" d="M509.618,107.5h10.994c1.106,0,2.003-0.897,2.003-2.003v-5.994c0-1.106-0.897-2.003-2.003-2.003h-10.994
			c-1.106,0-2.003,0.897-2.003,2.003v5.994C507.615,106.603,508.511,107.5,509.618,107.5z"/>
		<path fill="#FFFFFF" d="M479.618,107.5h10.994c1.106,0,2.003-0.897,2.003-2.003v-5.994c0-1.106-0.897-2.003-2.003-2.003h-10.994
			c-1.106,0-2.003,0.897-2.003,2.003v5.994C477.615,106.603,478.511,107.5,479.618,107.5z"/>
		<path fill="#FFFFFF" d="M449.618,107.5h10.994c1.106,0,2.003-0.897,2.003-2.003v-5.994c0-1.106-0.897-2.003-2.003-2.003h-10.994
			c-1.106,0-2.003,0.897-2.003,2.003v5.994C447.615,106.603,448.511,107.5,449.618,107.5z"/>
	</g>
	<g id="Bottom_Notches_3_">
		<path fill="#FFFFFF" d="M222.382,192.5h-10.994c-1.106,0-2.003-0.897-2.003-2.003v-5.994c0-1.106,0.897-2.003,2.003-2.003h10.994
			c1.106,0,2.003,0.897,2.003,2.003v5.994C224.385,191.603,223.489,192.5,222.382,192.5z"/>
		<path fill="#FFFFFF" d="M252.382,192.5h-10.994c-1.106,0-2.003-0.897-2.003-2.003v-5.994c0-1.106,0.897-2.003,2.003-2.003h10.994
			c1.106,0,2.003,0.897,2.003,2.003v5.994C254.385,191.603,253.489,192.5,252.382,192.5z"/>
		<path fill="#FFFFFF" d="M282.382,192.5h-10.994c-1.106,0-2.003-0.897-2.003-2.003v-5.994c0-1.106,0.897-2.003,2.003-2.003h10.994
			c1.106,0,2.003,0.897,2.003,2.003v5.994C284.385,191.603,283.489,192.5,282.382,192.5z"/>
		<path fill="#FFFFFF" d="M312.382,192.5h-10.994c-1.106,0-2.003-0.897-2.003-2.003v-5.994c0-1.106,0.897-2.003,2.003-2.003h10.994
			c1.106,0,2.003,0.897,2.003,2.003v5.994C314.385,191.603,313.489,192.5,312.382,192.5z"/>
		<path fill="#FFFFFF" d="M342.382,192.5h-10.994c-1.106,0-2.003-0.897-2.003-2.003v-5.994c0-1.106,0.897-2.003,2.003-2.003h10.994
			c1.106,0,2.003,0.897,2.003,2.003v5.994C344.385,191.603,343.489,192.5,342.382,192.5z"/>
		<path fill="#FFFFFF" d="M372.382,192.5h-10.994c-1.106,0-2.003-0.897-2.003-2.003v-5.994c0-1.106,0.897-2.003,2.003-2.003h10.994
			c1.106,0,2.003,0.897,2.003,2.003v5.994C374.385,191.603,373.489,192.5,372.382,192.5z"/>
		<path fill="#FFFFFF" d="M402.382,192.5h-10.994c-1.106,0-2.003-0.897-2.003-2.003v-5.994c0-1.106,0.897-2.003,2.003-2.003h10.994
			c1.106,0,2.003,0.897,2.003,2.003v5.994C404.385,191.603,403.489,192.5,402.382,192.5z"/>
		<path fill="#FFFFFF" d="M432.382,192.5h-10.994c-1.106,0-2.003-0.897-2.003-2.003v-5.994c0-1.106,0.897-2.003,2.003-2.003h10.994
			c1.106,0,2.003,0.897,2.003,2.003v5.994C434.385,191.603,433.489,192.5,432.382,192.5z"/>
		<path fill="#FFFFFF" d="M659.618,192.5h10.994c1.106,0,2.003-0.897,2.003-2.003v-5.994c0-1.106-0.897-2.003-2.003-2.003h-10.994
			c-1.106,0-2.003,0.897-2.003,2.003v5.994C657.615,191.603,658.511,192.5,659.618,192.5z"/>
		<path fill="#FFFFFF" d="M629.618,192.5h10.994c1.106,0,2.003-0.897,2.003-2.003v-5.994c0-1.106-0.897-2.003-2.003-2.003h-10.994
			c-1.106,0-2.003,0.897-2.003,2.003v5.994C627.615,191.603,628.511,192.5,629.618,192.5z"/>
		<path fill="#FFFFFF" d="M599.618,192.5h10.994c1.106,0,2.003-0.897,2.003-2.003v-5.994c0-1.106-0.897-2.003-2.003-2.003h-10.994
			c-1.106,0-2.003,0.897-2.003,2.003v5.994C597.615,191.603,598.511,192.5,599.618,192.5z"/>
		<path fill="#FFFFFF" d="M569.618,192.5h10.994c1.106,0,2.003-0.897,2.003-2.003v-5.994c0-1.106-0.897-2.003-2.003-2.003h-10.994
			c-1.106,0-2.003,0.897-2.003,2.003v5.994C567.615,191.603,568.511,192.5,569.618,192.5z"/>
		<path fill="#FFFFFF" d="M539.618,192.5h10.994c1.106,0,2.003-0.897,2.003-2.003v-5.994c0-1.106-0.897-2.003-2.003-2.003h-10.994
			c-1.106,0-2.003,0.897-2.003,2.003v5.994C537.615,191.603,538.511,192.5,539.618,192.5z"/>
		<path fill="#FFFFFF" d="M509.618,192.5h10.994c1.106,0,2.003-0.897,2.003-2.003v-5.994c0-1.106-0.897-2.003-2.003-2.003h-10.994
			c-1.106,0-2.003,0.897-2.003,2.003v5.994C507.615,191.603,508.511,192.5,509.618,192.5z"/>
		<path fill="#FFFFFF" d="M479.618,192.5h10.994c1.106,0,2.003-0.897,2.003-2.003v-5.994c0-1.106-0.897-2.003-2.003-2.003h-10.994
			c-1.106,0-2.003,0.897-2.003,2.003v5.994C477.615,191.603,478.511,192.5,479.618,192.5z"/>
		<path fill="#FFFFFF" d="M449.618,192.5h10.994c1.106,0,2.003-0.897,2.003-2.003v-5.994c0-1.106-0.897-2.003-2.003-2.003h-10.994
			c-1.106,0-2.003,0.897-2.003,2.003v5.994C447.615,191.603,448.511,192.5,449.618,192.5z"/>
	</g>
</g>
<g id="FILM">
	<g>
		<path d="M253.693,171h-3.636v-52.112h28.551v3.351h-24.916v22.1h23.525v3.387h-23.525V171z"/>
	</g>
	<g>
		<path d="M379.567,171v-52.112h3.636V171H379.567z"/>
	</g>
	<g>
		<path d="M490.647,171v-52.112h3.636v48.69h24.844V171H490.647z"/>
	</g>
	<g>
		<path d="M620.997,171l-19.426-48.12h-0.285c0.189,2.946,0.285,5.965,0.285,9.054V171h-3.493v-52.112h5.632l18.464,45.839h0.214
			l18.464-45.839h5.489V171h-3.672v-39.494c0-2.756,0.143-5.607,0.428-8.555h-0.285L623.314,171H620.997z"/>
	</g>
</g>
<g id="BEDE">
	<g>
		<path d="M17.906,30.125h12.531c5.646,0,9.792,0.958,12.438,2.875c2.646,1.917,3.969,4.812,3.969,8.688
			c0,2.646-0.808,4.849-2.422,6.609c-1.615,1.761-3.974,2.891-7.078,3.391v0.188c3.646,0.542,6.328,1.693,8.047,3.453
			c1.719,1.761,2.578,4.214,2.578,7.359c0,4.208-1.396,7.448-4.188,9.719c-2.792,2.271-6.75,3.406-11.875,3.406h-14V30.125z
			 M21.094,50.469h10.062c4.292,0,7.411-0.713,9.359-2.141c1.948-1.427,2.922-3.661,2.922-6.703c0-3.042-1.099-5.25-3.297-6.625
			c-2.198-1.375-5.474-2.062-9.828-2.062h-9.219V50.469z M21.094,53.281V73h10.75c8.458,0,12.688-3.438,12.688-10.312
			c0-6.271-4.458-9.406-13.375-9.406H21.094z"/>
	</g>
	<g>
		<path d="M99.281,75.812H74.312V30.125h24.969v2.938H77.5v17.281h20.562v2.938H77.5v19.594h21.781V75.812z"/>
	</g>
	<g>
		<path d="M159.017,52.531c0,7.667-1.911,13.464-5.732,17.391c-3.822,3.927-9.435,5.891-16.84,5.891H126.05V30.125h11.731
			c6.93,0,12.202,1.906,15.815,5.719S159.017,45.219,159.017,52.531z M155.72,52.656c0-6.542-1.579-11.463-4.737-14.766
			c-3.159-3.302-7.796-4.953-13.915-4.953h-7.989V73h7.187C149.235,73,155.72,66.219,155.72,52.656z"/>
	</g>
	<g>
		<path d="M209.281,75.812h-24.969V30.125h24.969v2.938H187.5v17.281h20.562v2.938H187.5v19.594h21.781V75.812z"/>
	</g>
</g>
<g id="SOC">
	<g>
		<path d="M754.75,64.031c0,3.812-1.401,6.833-4.203,9.062c-2.803,2.229-6.526,3.344-11.172,3.344
			c-5.584,0-9.865-0.615-12.844-1.844v-3.188c3.291,1.396,7.489,2.094,12.594,2.094c3.75,0,6.724-0.859,8.922-2.578
			c2.197-1.719,3.297-3.974,3.297-6.766c0-1.729-0.365-3.161-1.094-4.297c-0.729-1.135-1.917-2.172-3.562-3.109
			c-1.646-0.938-4.062-1.948-7.25-3.031c-4.667-1.604-7.891-3.338-9.672-5.203c-1.781-1.864-2.672-4.349-2.672-7.453
			c0-3.417,1.338-6.203,4.016-8.359c2.677-2.156,6.119-3.234,10.328-3.234c4.291,0,8.322,0.812,12.094,2.438l-1.156,2.75
			c-3.792-1.583-7.417-2.375-10.875-2.375c-3.375,0-6.062,0.781-8.062,2.344s-3,3.688-3,6.375c0,1.688,0.307,3.073,0.922,4.156
			c0.614,1.083,1.619,2.058,3.016,2.922c1.396,0.865,3.791,1.901,7.188,3.109c3.562,1.229,6.239,2.422,8.031,3.578
			c1.791,1.156,3.099,2.469,3.922,3.938C754.338,60.172,754.75,61.948,754.75,64.031z"/>
	</g>
	<g>
		<path d="M814.783,52.906c0,7.25-1.723,12.984-5.168,17.203c-3.444,4.219-8.196,6.328-14.255,6.328
			c-6.04,0-10.781-2.109-14.226-6.328c-3.445-4.219-5.168-9.974-5.168-17.266c0-7.271,1.737-12.995,5.212-17.172
			c3.475-4.177,8.222-6.266,14.241-6.266c6.059,0,10.8,2.099,14.226,6.297C813.07,39.901,814.783,45.636,814.783,52.906z
			 M779.264,52.906c0,6.542,1.385,11.599,4.157,15.172c2.772,3.573,6.751,5.359,11.939,5.359c5.228,0,9.222-1.771,11.983-5.312
			c2.762-3.542,4.143-8.614,4.143-15.219c0-6.583-1.381-11.63-4.143-15.141c-2.762-3.51-6.736-5.266-11.924-5.266
			c-5.168,0-9.152,1.771-11.955,5.312C780.664,41.354,779.264,46.386,779.264,52.906z"/>
	</g>
	<g>
		<path d="M856.594,32.344c-5.729,0-10.24,1.833-13.531,5.5c-3.292,3.667-4.938,8.688-4.938,15.062
			c0,6.521,1.552,11.583,4.656,15.188c3.104,3.604,7.541,5.406,13.312,5.406c3.833,0,7.354-0.489,10.562-1.469v2.812
			c-3.021,1.062-6.792,1.594-11.312,1.594c-6.417,0-11.469-2.073-15.156-6.219c-3.688-4.146-5.531-9.938-5.531-17.375
			c0-4.646,0.88-8.739,2.641-12.281c1.76-3.542,4.291-6.276,7.594-8.203c3.302-1.927,7.141-2.891,11.516-2.891
			c4.458,0,8.447,0.833,11.969,2.5l-1.281,2.875C863.76,33.177,860.26,32.344,856.594,32.344z"/>
	</g>
</g>
</svg>
