<?xml version="1.0" encoding="utf-8"?>
<!-- Generator: Adobe Illustrator 17.1.0, SVG Export Plug-In . SVG Version: 6.00 Build 0)  -->
<!DOCTYPE svg PUBLIC "-//W3C//DTD SVG 1.1//EN" "http://www.w3.org/Graphics/SVG/1.1/DTD/svg11.dtd">
<svg version="1.1" id="Layer_1" xmlns="http://www.w3.org/2000/svg" xmlns:xlink="http://www.w3.org/1999/xlink" x="0px" y="0px"
	 viewBox="0 0 300 475" enable-background="new 0 0 300 475" xml:space="preserve">
<path opacity="0.44" fill="#FFFFFF" enable-background="new    " d="M150,105.7c-72.8,0-131.8,59-131.8,131.8s59,131.8,131.8,131.8
	s131.8-59,131.8-131.8S222.8,105.7,150,105.7z M147.6,329.8c-9.3,0-15.7-7.2-15.7-16.4c0-9.8,6.6-16.7,15.9-16.7
	c9.3,0,15.7,6.9,15.7,16.7C163.5,322.7,157.4,329.8,147.6,329.8z M173.3,230.3c-11.7,13.8-15.9,25.5-15.1,39l0.3,6.9h-20.7v0
	l-0.5-6.9c-1.6-14.3,3.2-30,16.4-45.9c11.9-14.1,18.6-24.4,18.6-36.3c0-13.5-8.5-22.5-25.2-22.8c-9.5,0-20.2,3.2-26.8,8.2l-6.4-16.7
	c8.8-6.4,23.9-10.6,37.9-10.6c30.5,0,44.3,18.8,44.3,39C196.1,202.2,186,215.2,173.3,230.3z"/>
</svg>
