<svg xmlns="http://www.w3.org/2000/svg" viewBox="0 0 30 24.38" enable-background="new 0 0 30 24.38">
<path fill="#FFFFFF" d="M30,2.886c-1.104,0.49-2.29,0.82-3.535,0.969c1.271-0.762,2.247-1.968,2.706-3.405
	c-1.189,0.705-2.506,1.218-3.908,1.494C24.14,0.747,22.54,0,20.77,0c-3.399,0-6.155,2.756-6.155,6.155
	c0,0.482,0.054,0.952,0.159,1.403C9.659,7.301,5.124,4.85,2.088,1.127c-0.53,0.909-0.833,1.966-0.833,3.094
	c0,2.135,1.087,4.019,2.738,5.123c-1.009-0.032-1.958-0.309-2.788-0.77c0,0.026-0.001,0.051-0.001,0.077
	c0,2.982,2.122,5.47,4.937,6.035c-0.517,0.141-1.06,0.216-1.622,0.216c-0.397,0-0.782-0.039-1.158-0.11
	c0.783,2.445,3.056,4.225,5.75,4.274c-2.106,1.651-4.76,2.635-7.644,2.635c-0.497,0-0.987-0.029-1.468-0.086
	c2.724,1.746,5.959,2.765,9.435,2.765c11.321,0,17.512-9.379,17.512-17.512c0-0.267-0.006-0.532-0.018-0.796
	C28.131,5.204,29.175,4.12,30,2.886z"/>
</svg>
