<?xml version="1.0" encoding="utf-8"?>
<!-- Generator: Adobe Illustrator 17.1.0, SVG Export Plug-In . SVG Version: 6.00 Build 0)  -->
<!DOCTYPE svg PUBLIC "-//W3C//DTD SVG 1.1//EN" "http://www.w3.org/Graphics/SVG/1.1/DTD/svg11.dtd">
<svg version="1.1" id="Layer_1" xmlns="http://www.w3.org/2000/svg" xmlns:xlink="http://www.w3.org/1999/xlink" x="0px" y="0px"
	 viewBox="0 0 27 19.137" enable-background="new 0 0 27 19.137" xml:space="preserve">
<circle display="none" fill="#E62D27" cx="13.5" cy="9.569" r="20"/>
<g>
	<g>
		<path fill="#FFFFFF" d="M26.73,4.128c0,0-0.264-1.875-1.073-2.701c-1.027-1.084-2.178-1.089-2.705-1.153
			C19.174,0,13.506,0,13.506,0h-0.012c0,0-5.667,0-9.446,0.275C3.521,0.339,2.37,0.344,1.343,1.428
			C0.533,2.254,0.27,4.128,0.27,4.128S0,6.33,0,8.532v2.064C0,12.798,0.27,15,0.27,15s0.263,1.875,1.073,2.701
			c1.027,1.084,2.376,1.049,2.977,1.163c2.16,0.209,9.18,0.273,9.18,0.273s5.673-0.009,9.452-0.284
			c0.528-0.063,1.679-0.069,2.705-1.152C26.467,16.875,26.73,15,26.73,15S27,12.798,27,10.596V8.532
			C27,6.33,26.73,4.128,26.73,4.128z M10.681,13.34V5.677l7.167,3.751L10.681,13.34z"/>
	</g>
</g>
</svg>
